<svg width="96" height="96" viewBox="0 0 96 96" xmlns="http://www.w3.org/2000/svg" fill="none">
  <rect width="96" height="96" rx="20" fill="#111" />
  <path
    d="M28 36c4-6 12-10 22-10 10.5 0 20.5 6 27 15.5 3.5 5 4.5 10.5 1.7 14.3-3 4-8.8 3.7-13.2 0-3.5-3-3-6.3-2.2-7.8 1.2-2.2-0.6-3.8-2.2-2.7-4.8 3.4-6.4 7.7-6.4 11.7 0 8.7-5.8 14.4-14.5 14.4C32.6 71.4 26 65.6 26 56c0-5 1.5-12.4 6-20Z"
    fill="#fff"
  />
  <path
    d="M51.5 23.5c0 3.2-2.5 5.7-5.7 5.7s-5.7-2.5-5.7-5.7c0-3.1 2.5-5.6 5.7-5.6 3.2 0 5.7 2.5 5.7 5.6Z"
    fill="#fff"
  />
</svg>
